PathFileType	4	(X/Y/Z)	c:/Users/goper/Files/vsCode/490R/osim_files/A01/A01_Slow_03.trc
DataRate	CameraRate	NumFrames	NumMarkers	Units                	OrigDataRate	OrigDataStartFrame	OrigNumFrames
120.00	120.00	9	36	mm	120.0	1467	1676
                Frame#	Time	Mobility_markerset:LPSIS			Mobility_markerset:LASIS			Mobility_markerset:LTH1			Mobility_markerset:LTH2			Mobility_markerset:LTH3			Mobility_markerset:LTH4			Mobility_markerset:LLFE			Mobility_markerset:LMFE			Mobility_markerset:LSH1			Mobility_markerset:LSH2			Mobility_markerset:LSH3			Mobility_markerset:LSH4			Mobility_markerset:LLMAL			Mobility_markerset:LMMAL			Mobility_markerset:LCAL			Mobility_markerset:LMTP5			Mobility_markerset:LTOE			Mobility_markerset:LMTP1			Mobility_markerset:RPSIS			Mobility_markerset:RASIS			Mobility_markerset:RTH1			Mobility_markerset:RTH2			Mobility_markerset:RTH3			Mobility_markerset:RTH4			Mobility_markerset:RLFE			Mobility_markerset:RMFE			Mobility_markerset:RSH1			Mobility_markerset:RSH2			Mobility_markerset:RSH3			Mobility_markerset:RSH4			Mobility_markerset:RLMAL			Mobility_markerset:RMMAL			Mobility_markerset:RCAL			Mobility_markerset:RMTP1			Mobility_markerset:RTOE			Mobility_markerset:RMTP5		
		X1	Y1	Z1	X2	Y2	Z2	X3	Y3	Z3	X4	Y4	Z4	X5	Y5	Z5	X6	Y6	Z6	X7	Y7	Z7	X8	Y8	Z8	X9	Y9	Z9	X10	Y10	Z10	X11	Y11	Z11	X12	Y12	Z12	X13	Y13	Z13	X14	Y14	Z14	X15	Y15	Z15	X16	Y16	Z16	X17	Y17	Z17	X18	Y18	Z18	X19	Y19	Z19	X20	Y20	Z20	X21	Y21	Z21	X22	Y22	Z22	X23	Y23	Z23	X24	Y24	Z24	X25	Y25	Z25	X26	Y26	Z26	X27	Y27	Z27	X28	Y28	Z28	X29	Y29	Z29	X30	Y30	Z30	X31	Y31	Z31	X32	Y32	Z32	X33	Y33	Z33	X34	Y34	Z34	X35	Y35	Z35	X36	Y36	Z36

1467	12.21667	0.00000	0.00000	0.00000	-3011.16675	1021.13470	1581.37366	-1489.21875	1309.97083	2848.44312	0.00000	0.00000	0.00000	0.00000	0.00000	0.00000	0.00000	0.00000	0.00000	0.00000	0.00000	0.00000	-3101.31519	532.90747	1590.15637	-3252.78931	1059.69165	1659.94360	0.00000	0.00000	0.00000	0.00000	0.00000	0.00000	0.00000	0.00000	0.00000	-3216.51025	92.36835	1636.03284	-3235.45581	94.11780	1716.99731	-3301.92090	69.30643	1668.26733	0.00000	0.00000	0.00000	-3136.34595	694.74493	1535.75928	0.00000	0.00000	0.00000	-3257.42310	1051.75464	1761.43713	-3030.04370	1005.17639	1838.77112	0.00000	0.00000	0.00000	0.00000	0.00000	0.00000	-2988.54688	667.79620	1927.39612	0.00000	0.00000	0.00000	-3107.21533	154.35297	1771.10571	0.00000	0.00000	0.00000	-3101.71729	366.63397	1878.88660	-3114.52563	323.51907	1878.43506	0.00000	0.00000	0.00000	-3065.17480	302.72659	1888.97644	-3152.69019	146.18681	1848.56616	0.00000	0.00000	0.00000	-3200.10400	134.10210	1788.74939	-3005.61792	55.44208	1789.52698	-2978.29443	63.21365	1841.91064	-3049.57178	47.14851	1892.11047
1468	12.22500	0.00000	0.00000	0.00000	-3005.39087	1020.21069	1581.95190	-1489.55859	1309.85205	2848.47705	0.00000	0.00000	0.00000	0.00000	0.00000	0.00000	0.00000	0.00000	0.00000	0.00000	0.00000	0.00000	-3097.24072	532.49902	1590.82153	-3245.88892	1059.55762	1661.96802	0.00000	0.00000	0.00000	0.00000	0.00000	0.00000	0.00000	0.00000	0.00000	-3216.01343	92.82477	1636.13306	-3235.09106	94.55606	1717.32861	-3301.62695	70.05903	1668.44751	0.00000	0.00000	0.00000	-3131.82373	694.72473	1536.69287	0.00000	0.00000	0.00000	-3249.28809	1051.43079	1763.64685	-3021.89233	1005.40106	1839.55591	0.00000	0.00000	0.00000	0.00000	0.00000	0.00000	-2978.04639	668.61292	1926.67773	0.00000	0.00000	0.00000	-3078.78540	146.95210	1774.98645	0.00000	0.00000	0.00000	-3083.99805	360.27258	1881.00500	-3094.73853	316.56052	1880.96997	0.00000	0.00000	0.00000	-3044.06641	298.39026	1891.24658	-3123.78174	137.29683	1852.66150	0.00000	0.00000	0.00000	-3170.47949	122.22624	1792.92090	-2972.50366	53.72066	1794.95923	-2945.15479	63.49485	1847.44128	-3015.96313	44.32371	1898.02869
1469	12.23333	0.00000	0.00000	0.00000	-2998.75415	1019.39813	1582.26904	-1489.96729	1309.67371	2848.49316	0.00000	0.00000	0.00000	0.00000	0.00000	0.00000	0.00000	0.00000	0.00000	0.00000	0.00000	0.00000	-3093.55811	532.17249	1591.31421	-3239.05322	1059.48486	1664.10034	0.00000	0.00000	0.00000	0.00000	0.00000	0.00000	0.00000	0.00000	0.00000	-3215.38525	93.20766	1636.20422	-3234.70435	94.99324	1717.62683	-3301.33838	70.82128	1668.63086	0.00000	0.00000	0.00000	-3128.83643	694.73541	1536.25745	0.00000	0.00000	0.00000	-3242.13867	1051.50195	1765.63879	-3013.58398	1005.29742	1840.43091	0.00000	0.00000	0.00000	0.00000	0.00000	0.00000	-2967.98950	668.90131	1925.83472	0.00000	0.00000	0.00000	-3049.45679	140.25743	1778.85974	0.00000	0.00000	0.00000	-3066.33643	354.01260	1883.27417	-3074.48340	309.57205	1883.66626	0.00000	0.00000	0.00000	-3022.97656	294.25864	1893.47217	-3094.16699	129.18716	1856.50269	0.00000	0.00000	0.00000	-3140.31909	110.63528	1797.29004	-2938.94629	52.77145	1800.11658	-2912.90503	64.57901	1852.17029	-2981.45312	42.91459	1901.74060
1470	12.24167	0.00000	0.00000	0.00000	-2992.27515	1018.52905	1582.58960	-1490.42859	1309.38293	2848.58374	0.00000	0.00000	0.00000	0.00000	0.00000	0.00000	0.00000	0.00000	0.00000	0.00000	0.00000	0.00000	-3089.74976	531.72272	1591.75415	-3232.06079	1059.43347	1666.33362	0.00000	0.00000	0.00000	0.00000	0.00000	0.00000	0.00000	0.00000	0.00000	-3215.01758	93.62637	1636.22900	-3234.27637	95.37659	1717.92322	-3301.08618	71.60920	1668.79053	0.00000	0.00000	0.00000	-3124.12061	694.93207	1537.60303	0.00000	0.00000	0.00000	-3234.35693	1051.23047	1767.83350	-3005.25439	1005.00317	1841.25098	0.00000	0.00000	0.00000	0.00000	0.00000	0.00000	-2958.48804	668.94934	1924.92273	0.00000	0.00000	0.00000	-3020.88818	134.32724	1782.86353	0.00000	0.00000	0.00000	-3048.50171	347.86584	1885.58618	-3054.16626	303.01913	1886.37170	0.00000	0.00000	0.00000	-3002.03003	290.43451	1896.05286	-3065.64868	121.22740	1861.04419	0.00000	0.00000	0.00000	-3110.56958	100.95355	1801.83447	-2905.45923	53.10682	1804.40808	-2880.08203	66.12766	1856.75659	-2947.50000	41.94085	1906.42249
1471	12.25000	0.00000	0.00000	0.00000	-2985.84546	1017.72577	1583.03467	-1490.80615	1309.06030	2848.46289	0.00000	0.00000	0.00000	0.00000	0.00000	0.00000	0.00000	0.00000	0.00000	0.00000	0.00000	0.00000	-3085.95605	531.20587	1592.24084	-3224.84082	1059.29028	1668.68689	0.00000	0.00000	0.00000	0.00000	0.00000	0.00000	0.00000	0.00000	0.00000	-3214.61890	93.96517	1636.28955	-3233.87231	95.75663	1718.20947	-3300.81372	72.32465	1668.96130	0.00000	0.00000	0.00000	-3119.67700	694.60840	1538.40991	0.00000	0.00000	0.00000	-3226.44556	1050.90015	1770.10706	-2996.77124	1004.53088	1842.15491	0.00000	0.00000	0.00000	0.00000	0.00000	0.00000	-2949.34229	668.60712	1924.26807	0.00000	0.00000	0.00000	-2992.21265	129.21449	1786.92554	0.00000	0.00000	0.00000	-3031.09766	342.32434	1888.00220	-3034.62769	297.12643	1889.09924	0.00000	0.00000	0.00000	-2981.16919	287.21033	1898.57532	-3035.99805	115.86822	1866.01233	0.00000	0.00000	0.00000	-3078.96069	90.93783	1806.53345	-2872.52954	54.23318	1808.47144	-2847.72827	68.70411	1860.62292	-2913.72510	41.63372	1910.79541
1472	12.25833	0.00000	0.00000	0.00000	-2979.30957	1016.90656	1583.43201	-1491.08862	1308.76062	2848.37305	0.00000	0.00000	0.00000	0.00000	0.00000	0.00000	0.00000	0.00000	0.00000	0.00000	0.00000	0.00000	-3082.37109	530.80664	1592.67212	-3217.57739	1059.19580	1671.18555	0.00000	0.00000	0.00000	0.00000	0.00000	0.00000	0.00000	0.00000	0.00000	-3214.41943	94.40180	1636.35437	-3233.49146	96.13827	1718.51208	-3300.55103	73.05772	1669.13782	0.00000	0.00000	0.00000	-3115.20752	694.48309	1539.38721	0.00000	0.00000	0.00000	-3217.92603	1050.39172	1772.63513	-2988.10059	1003.85706	1843.01904	0.00000	0.00000	0.00000	0.00000	0.00000	0.00000	-2940.68921	667.92743	1923.77588	0.00000	0.00000	0.00000	-2964.66528	125.00571	1791.55042	0.00000	0.00000	0.00000	-3012.65527	336.28592	1890.58105	-3014.30786	291.52817	1892.07312	0.00000	0.00000	0.00000	-2960.71924	284.52219	1901.02356	0.00000	0.00000	0.00000	0.00000	0.00000	0.00000	-3048.12573	82.91756	1811.23242	-2840.39185	56.38174	1812.15027	-2815.75635	72.24574	1864.02307	-2880.11792	42.12918	1914.72241
1473	12.26667	0.00000	0.00000	0.00000	-2972.74707	1016.10205	1583.97998	-1491.45264	1308.47314	2848.27905	0.00000	0.00000	0.00000	0.00000	0.00000	0.00000	0.00000	0.00000	0.00000	0.00000	0.00000	0.00000	-3078.44995	530.11725	1593.30615	-3210.13428	1059.00146	1673.79248	0.00000	0.00000	0.00000	0.00000	0.00000	0.00000	0.00000	0.00000	0.00000	-3214.04150	94.74415	1636.40613	-3232.68457	96.16755	1718.93518	-3300.23804	73.71129	1669.32678	0.00000	0.00000	0.00000	-3110.90308	694.28247	1540.26624	0.00000	0.00000	0.00000	-3210.07202	1050.15210	1775.00122	-2979.34229	1002.78998	1843.85974	0.00000	0.00000	0.00000	0.00000	0.00000	0.00000	-2932.48413	666.89117	1923.40125	0.00000	0.00000	0.00000	-2935.03540	122.54139	1794.40820	0.00000	0.00000	0.00000	-2994.99927	331.43863	1893.38611	-2994.05591	286.52823	1895.18335	0.00000	0.00000	0.00000	-2940.46655	282.41498	1903.55322	-2976.10132	105.16864	1874.37183	0.00000	0.00000	0.00000	-3018.15405	76.87563	1815.84436	-2808.51367	59.60719	1815.13062	-2784.47192	76.65076	1866.86670	-2847.91968	43.72019	1918.61731
1474	12.27500	0.00000	0.00000	0.00000	-2966.08521	1015.31830	1584.42847	-1491.89172	1308.04138	2848.16260	0.00000	0.00000	0.00000	0.00000	0.00000	0.00000	0.00000	0.00000	0.00000	0.00000	0.00000	0.00000	-3074.96924	529.58929	1593.65771	-3202.59521	1058.80139	1676.44348	0.00000	0.00000	0.00000	0.00000	0.00000	0.00000	0.00000	0.00000	0.00000	-3213.74146	95.11313	1636.41101	-3232.36499	96.49706	1719.18005	-3299.98047	74.38207	1669.51196	0.00000	0.00000	0.00000	-3106.46558	693.92053	1541.26282	0.00000	0.00000	0.00000	-3201.57739	1049.61719	1777.53284	-2970.48389	1001.59698	1844.67981	0.00000	0.00000	0.00000	0.00000	0.00000	0.00000	-2924.63086	665.56805	1923.28894	0.00000	0.00000	0.00000	-2907.15576	120.74780	1797.91333	0.00000	0.00000	0.00000	-2977.33057	327.00122	1896.30676	-2973.86475	282.09387	1898.44116	0.00000	0.00000	0.00000	-2920.18604	280.98300	1906.13989	-2945.82764	101.17091	1877.77490	0.00000	0.00000	0.00000	-2987.33081	70.55617	1820.48486	-2777.89038	64.12486	1817.61536	-2754.29614	82.27428	1869.14612	-2815.18848	46.58868	1921.51099
1475	12.28333	0.00000	0.00000	0.00000	-2959.36230	1014.46661	1584.83435	0.00000	0.00000	0.00000	-3097.16895	646.72943	1552.24634	-3041.45093	693.62866	1542.14905	-3045.39038	648.40503	1556.34937	0.00000	0.00000	0.00000	-3071.11670	528.77802	1594.25098	-3194.85181	1058.48499	1679.16077	0.00000	0.00000	0.00000	0.00000	0.00000	0.00000	0.00000	0.00000	0.00000	-3213.29785	95.44098	1636.42712	-3232.05200	96.80703	1719.45569	-3299.72339	75.00306	1669.65771	0.00000	0.00000	0.00000	-3102.17993	693.71326	1542.14673	0.00000	0.00000	0.00000	-3192.57983	1048.88782	1780.23621	-2961.34351	1000.04620	1845.41150	0.00000	0.00000	0.00000	0.00000	0.00000	0.00000	-2917.23315	663.74054	1923.45044	0.00000	0.00000	0.00000	-2880.66626	119.77333	1801.19421	0.00000	0.00000	0.00000	-2959.80444	323.05569	1899.31812	-2954.13574	278.44339	1901.63831	0.00000	0.00000	0.00000	-2900.33740	279.93475	1908.68970	-2917.43164	98.80319	1881.52014	0.00000	0.00000	0.00000	-2957.69727	65.69331	1824.80078	-2748.09009	69.77074	1819.48792	-2724.38110	89.85117	1870.62720	-2783.38745	50.84531	1923.98718
